<svg width="162" height="158" viewBox="0 0 162 158" fill="none" xmlns="http://www.w3.org/2000/svg">
<ellipse cx="82.4346" cy="64.1458" rx="55" ry="55.5" fill="#80BABC"/>
<g filter="url(#filter0_d_42_617)">
<path d="M113.249 16.0863C85.8627 -1.01116 49.4672 7.40662 32.3697 34.7925C15.2723 62.1784 23.6901 98.5738 51.0759 115.671C78.4618 132.769 114.857 124.351 131.955 96.9651C149.052 69.5792 140.634 33.1838 113.249 16.0863ZM125.019 69.2799C127.509 70.8342 128.21 73.8672 130.7 75.4215C127.278 76.7454 119.187 71.6939 118.64 67.0275C120.896 67.5709 122.529 67.7256 125.019 69.2799ZM38.5938 38.6783C40.1481 36.1887 41.7024 33.699 44.2677 30.9756C44.8901 31.3642 45.124 32.3751 45.7464 32.7637C45.7464 32.7637 45.9802 33.7747 45.5916 34.3971C44.4259 36.2643 45.5159 38.6749 46.7608 39.452C51.3514 43.1831 50.4986 48.7057 54.0783 52.6705C54.9345 54.0701 53.535 54.9263 52.1354 55.7825C45.2923 58.4303 46.0729 64.1077 47.242 69.1626C48.7997 73.5951 47.2454 76.0847 45.5363 80.2077C42.8163 84.5646 40.3301 89.9324 39.4772 95.455C28.58 78.2716 27.325 56.7281 38.5938 38.6783ZM54.9617 109.447C50.6049 106.727 46.0142 102.996 43.0569 99.4199C43.2117 97.7865 43.9888 96.5416 45.3884 95.6854C50.9867 92.2605 56.1963 89.458 62.0284 87.044C64.0504 86.5763 66.0724 86.1087 67.2381 84.2415C68.0152 82.9967 69.8034 81.518 71.203 80.6618C75.0131 78.7155 75.5564 76.4597 73.4554 74.283C69.2533 69.9295 69.4837 64.0184 66.915 59.8197C64.3463 55.621 61.389 52.0447 57.1112 51.969C55.4778 51.8143 53.222 51.271 54.3878 49.4037C55.9421 46.9141 53.9958 43.104 56.1725 41.003C55.5501 40.6144 54.9277 40.2258 53.9167 40.4596C52.9058 40.6934 51.8948 40.9273 51.0385 39.5277C50.5709 37.5057 51.9704 36.6495 52.7476 35.4047C54.1472 34.5485 55.1581 34.3146 56.7915 34.4694C59.6697 35.4013 62.1594 36.9556 61.4613 40.8448C66.8257 36.4089 72.503 35.6283 77.7918 35.4702C77.7918 35.4702 85.4911 34.222 86.1135 34.6105C86.7359 34.9991 86.5812 36.6325 87.4374 38.0321C88.6822 38.8092 89.3046 39.1978 90.0818 37.953C92.6471 35.2295 93.1113 30.3294 91.0103 28.1527C91.3989 27.5302 92.0213 27.9188 92.0213 27.9188C94.2771 28.4622 97.5438 28.7717 98.0872 26.5159C99.6415 24.0262 97.929 21.2271 95.4394 19.6728C94.1946 18.8956 92.9498 18.1185 91.3164 17.9637C88.0496 17.6542 84.1604 16.9561 80.426 14.6247C90.3811 13.9198 100.649 16.8703 109.363 22.3104L114.342 25.419C110.219 23.7099 105.707 22.6233 102.441 22.3138C105.786 25.2676 105.243 27.5234 102.055 29.8583C100.656 30.7146 100.501 32.3479 101.357 33.7475C102.214 35.1471 103.458 35.9242 104.858 35.068C107.269 33.9779 110.147 34.9098 112.403 35.4532C115.281 36.3851 117.925 36.306 121.347 34.9821C121.735 34.3597 122.358 34.7483 123.369 34.5145C126.326 38.0908 128.506 42.9118 130.686 47.7329C130.064 47.3444 129.675 47.9668 129.053 47.5782C127.031 48.0459 124.775 47.5025 125.088 51.1579C124.933 52.7913 123.922 53.0251 122.911 53.2589C121.278 53.1042 121.044 52.0932 120.81 51.0822C120.576 50.0712 121.353 48.8264 119.486 47.6607C118.087 48.5169 115.831 47.9736 114.665 49.8408C117.777 51.7837 115.6 53.8847 115.057 56.1405C110.934 54.4315 108.524 55.5215 108.448 59.7993C108.293 61.4327 106.66 61.2779 105.649 61.5118C100.828 63.6919 96.7837 64.6272 94.0636 68.984C91.3436 73.3409 91.7356 79.6406 97.1034 82.1268C103.094 85.0016 103.094 85.0016 101.852 91.1466C101.464 91.769 101.697 92.78 101.309 93.4024C101.154 95.0358 100.999 96.6692 99.5998 97.5254C94.624 101.339 94.7821 106.628 94.3179 111.528C94.1631 113.161 94.3969 114.172 94.6308 115.183C81.0994 118.845 67.4098 117.219 54.9617 109.447Z" fill="#48924A"/>
<path d="M130.88 75.8878L131.813 75.527L130.965 74.9974C129.82 74.283 129.076 73.2245 128.27 72.0652L128.246 72.0317C127.464 70.9066 126.616 69.6875 125.284 68.8558C123.144 67.52 121.585 67.1749 119.848 66.7903C119.494 66.7119 119.133 66.6318 118.757 66.5414L118.06 66.3735L118.144 67.0857C118.295 68.3783 118.961 69.6553 119.884 70.8066C120.81 71.9623 122.02 73.0232 123.314 73.8868C124.608 74.7501 126.004 75.428 127.31 75.8051C128.602 76.1779 129.876 76.2764 130.88 75.8878ZM44.5325 30.5514L44.1848 30.3344L43.9038 30.6328C41.3045 33.3922 39.7284 35.9169 38.1755 38.4041L38.1697 38.4135C26.7893 56.642 28.065 78.3931 39.055 95.7228L39.7681 96.8473L39.9714 95.5313C40.8104 90.0984 43.2616 84.7954 45.9605 80.4725L45.9824 80.4374L45.9982 80.3992C46.199 79.9148 46.4004 79.4475 46.5962 78.993C47.2163 77.554 47.7814 76.2426 48.1003 74.9183C48.5287 73.1397 48.5246 71.3181 47.723 69.0232C47.1405 66.5004 46.6867 63.9281 47.1729 61.6754C47.6487 59.4705 49.0386 57.5169 52.3158 56.2489L52.3579 56.2326L52.3963 56.2091L52.4422 56.181C53.107 55.7744 53.8646 55.3111 54.3352 54.7524C54.5856 54.4551 54.7826 54.1005 54.8296 53.6827C54.8772 53.2594 54.764 52.8332 54.5048 52.4096L54.4805 52.3699L54.4494 52.3354C52.9099 50.6303 52.2295 48.6274 51.508 46.5036C51.4299 46.2739 51.3514 46.0428 51.2713 45.8105C50.4586 43.4545 49.4873 41.0237 47.0761 39.064L47.052 39.0444L47.0256 39.0279C46.5262 38.7162 46.0058 38.031 45.7508 37.1885C45.4995 36.358 45.5268 35.4451 46.0158 34.6619C46.2896 34.2232 46.3253 33.6925 46.3145 33.3321C46.3088 33.1421 46.2893 32.9757 46.2712 32.8564C46.2621 32.7965 46.2532 32.7476 46.2464 32.7126C46.243 32.695 46.24 32.6809 46.2378 32.6706L46.2351 32.6579L46.2341 32.6537L46.2338 32.6522L46.2336 32.6516L46.2336 32.6513C46.2335 32.6512 46.2335 32.6511 45.7464 32.7637L46.2335 32.6511L46.1868 32.4493L46.0112 32.3396C45.8196 32.22 45.6646 31.9863 45.4336 31.6087C45.4255 31.5956 45.4174 31.5822 45.4091 31.5686C45.2139 31.2488 44.9458 30.8094 44.5325 30.5514ZM42.5592 99.3727L42.5396 99.5789L42.6716 99.7385C45.6726 103.368 50.3091 107.132 54.6969 109.871C67.2689 117.72 81.1027 119.362 94.7614 115.666L95.2265 115.54L95.1179 115.071C94.8874 114.074 94.6686 113.126 94.8156 111.575C94.8678 111.024 94.9124 110.473 94.9569 109.924C95.3147 105.503 95.6642 101.184 99.8841 97.9375C100.697 97.4313 101.14 96.7012 101.397 95.9094C101.639 95.1621 101.723 94.3299 101.797 93.5555C101.999 93.1645 102.042 92.7085 102.074 92.3685C102.075 92.3526 102.077 92.337 102.078 92.3217C102.12 91.881 102.157 91.603 102.276 91.4114L102.324 91.3345L102.342 91.2456L102.349 91.2147C102.654 89.7048 102.891 88.5303 102.974 87.5935C103.059 86.6437 102.994 85.8648 102.632 85.1775C102.273 84.4946 101.658 83.9749 100.807 83.4576C99.9627 82.9444 98.8213 82.3967 97.3459 81.6886L97.3197 81.676L97.3135 81.6731C94.7894 80.504 93.4457 78.452 93.0429 76.17C92.6374 73.8724 93.1869 71.3324 94.4878 69.2488C95.7904 67.1622 97.407 65.8931 99.3052 64.872C100.26 64.3584 101.284 63.9086 102.381 63.4473C102.649 63.3345 102.922 63.2209 103.199 63.1056C104.035 62.7577 104.909 62.3939 105.808 61.9886C105.967 61.9545 106.14 61.93 106.341 61.9018C106.412 61.8918 106.486 61.8814 106.564 61.8699C106.866 61.8254 107.21 61.7664 107.535 61.6521C107.864 61.5365 108.199 61.3559 108.464 61.0515C108.734 60.7423 108.899 60.3425 108.946 59.8465L108.947 59.8273L108.948 59.8081C108.984 57.7369 109.583 56.6333 110.468 56.1673C111.389 55.6822 112.838 55.7618 114.866 56.6024L115.406 56.8265L115.543 56.2576C115.667 55.7446 115.885 55.2328 116.119 54.6829L116.123 54.6736C116.351 54.138 116.598 53.558 116.721 52.9772C116.847 52.3836 116.853 51.7541 116.572 51.1242C116.348 50.6205 115.959 50.1567 115.38 49.7235C115.832 49.2359 116.419 49.0163 117.101 48.8588C117.312 48.81 117.526 48.7683 117.748 48.7253L117.758 48.7233C117.975 48.6815 118.199 48.638 118.419 48.5871C118.764 48.5074 119.12 48.4048 119.457 48.2438C119.736 48.4475 119.914 48.641 120.029 48.8181C120.172 49.0376 120.237 49.2568 120.264 49.4877C120.29 49.7088 120.281 49.9276 120.271 50.185C120.27 50.2114 120.269 50.2382 120.268 50.2655C120.257 50.5393 120.248 50.869 120.323 51.1949L120.332 51.2359C120.442 51.7125 120.579 52.3049 120.932 52.7871C121.324 53.3224 121.934 53.6686 122.864 53.7567L122.945 53.7643L123.024 53.7461L123.065 53.7366C123.541 53.6266 124.134 53.4898 124.616 53.1366C125.151 52.7445 125.498 52.1349 125.586 51.205L125.59 51.1602L125.586 51.1152C125.511 50.2435 125.596 49.6833 125.751 49.3171C125.898 48.9699 126.121 48.7649 126.414 48.622C126.727 48.469 127.122 48.3869 127.609 48.3155C127.722 48.2989 127.84 48.2829 127.963 48.2663C128.287 48.2227 128.638 48.1753 128.983 48.105C129.389 48.2804 129.74 48.199 129.966 48.1465L129.982 48.1427C130.228 48.0859 130.297 48.0792 130.421 48.1571L131.822 49.0316L131.142 47.5269L131.124 47.4867C128.957 42.6952 126.754 37.8238 123.754 34.1958L123.557 33.9577L123.256 34.0273C122.931 34.1024 122.678 34.1014 122.409 34.1004C122.313 34.1 122.214 34.0997 122.109 34.1028C121.926 34.1083 121.705 34.1273 121.489 34.2192C121.309 34.2954 121.156 34.4116 121.028 34.5686C117.769 35.805 115.275 35.8576 112.557 34.9775L112.538 34.9716L112.52 34.9671C112.285 34.9106 112.04 34.8488 111.787 34.7849C110.852 34.5493 109.804 34.2851 108.751 34.152C107.403 33.9816 105.975 34.0139 104.652 34.6124L104.624 34.6252L104.597 34.6415C104.029 34.9887 103.541 34.9886 103.106 34.7964C102.641 34.5909 102.183 34.1396 101.784 33.4866C101.406 32.8692 101.269 32.2291 101.355 31.6755C101.438 31.1326 101.74 30.6373 102.316 30.2848L102.334 30.274L102.351 30.2617C103.969 29.0768 105.058 27.8158 105.196 26.3653C105.303 25.2386 104.825 24.1249 103.827 22.9863C106.861 23.4318 110.647 24.4284 114.151 25.8809L114.607 24.9949L109.628 21.8862C100.837 16.3983 90.4655 13.4126 80.3907 14.1259L78.8569 14.2345L80.1612 15.0488C83.9917 17.4403 87.9709 18.149 91.2692 18.4615C92.7689 18.6036 93.9191 19.3131 95.1746 20.0969C96.3565 20.8348 97.3289 21.8543 97.8242 22.9496C98.3121 24.0287 98.3375 25.1708 97.663 26.2511L97.6201 26.3199L97.6011 26.3988C97.4017 27.2265 96.7166 27.6441 95.6382 27.7704C94.5797 27.8944 93.2961 27.707 92.2009 27.4477C92.1754 27.4349 92.1447 27.4206 92.1094 27.4059C92.0143 27.3665 91.8746 27.3203 91.7086 27.3046C91.5405 27.2886 91.3354 27.3033 91.1262 27.398C90.9135 27.4941 90.7296 27.658 90.5861 27.8879L90.3794 28.219L90.6505 28.4999C91.5624 29.4446 91.9645 31.0447 91.7981 32.8006C91.6329 34.545 90.913 36.3413 89.7178 37.6102L89.6839 37.6462L89.6576 37.6882C89.4814 37.9704 89.3412 38.1143 89.2357 38.1856C89.1461 38.2462 89.0725 38.2616 88.9821 38.253C88.8717 38.2425 88.7197 38.1935 88.4951 38.078C88.2968 37.976 88.0748 37.8402 87.8056 37.6725C87.467 37.0785 87.315 36.4352 87.1749 35.8295L87.1699 35.8079C87.1008 35.5089 87.0287 35.1972 86.9305 34.9362C86.8317 34.6736 86.6749 34.3716 86.3783 34.1864C86.2425 34.1016 86.0835 34.074 85.9842 34.0606C85.8653 34.0446 85.7281 34.0376 85.5829 34.0359C85.2911 34.0326 84.9224 34.0508 84.5122 34.0824C83.6893 34.1458 82.658 34.2668 81.654 34.3989C80.6483 34.5312 79.663 34.6756 78.9296 34.7869C78.5627 34.8425 78.2586 34.8899 78.046 34.9234C77.9397 34.9401 77.8563 34.9534 77.7994 34.9625L77.7443 34.9714C72.7248 35.1238 67.2796 35.8395 62.0784 39.7237C62.1083 38.2495 61.6433 37.1043 60.8386 36.213C59.8531 35.1215 58.4069 34.4668 56.9456 33.9937L56.8933 33.9768L56.8387 33.9716C55.9884 33.8911 55.2699 33.9087 54.5692 34.0708C53.8685 34.2328 53.2152 34.5325 52.4867 34.9782L52.386 35.0398L52.3235 35.1399C52.1484 35.4202 51.9355 35.6833 51.6989 35.9744L51.6902 35.9851C51.4627 36.265 51.213 36.5722 51.0021 36.91C50.5568 37.6233 50.2824 38.4773 50.5514 39.6404L50.5697 39.7194L50.612 39.7886C51.0995 40.5854 51.6782 40.9811 52.3313 41.0983C52.9196 41.2039 53.5119 41.0667 53.9883 40.9563L54.0294 40.9468C54.5966 40.8156 54.996 40.9197 55.4012 41.1293C54.5543 42.2905 54.5294 43.7522 54.5468 45.0642C54.5485 45.193 54.5507 45.3206 54.5529 45.447C54.5639 46.0883 54.5743 46.6998 54.5185 47.2891C54.4525 47.9863 54.2961 48.6065 53.9637 49.1389C53.6314 49.6711 53.4912 50.1925 53.6047 50.6832C53.7182 51.1739 54.0585 51.5176 54.435 51.7527C55.1655 52.2087 56.243 52.389 57.0641 52.4668L57.0832 52.4686L57.1024 52.469C61.0809 52.5393 63.9101 55.866 66.4885 60.0806C67.4861 61.7114 68.0437 63.6019 68.6419 65.6305C68.7882 66.1264 68.9369 66.6306 69.095 67.1412C69.8894 69.7063 70.9103 72.3662 73.0956 74.6302C74.0752 75.6451 74.3412 76.5678 74.0701 77.4048C73.783 78.2916 72.8439 79.2621 70.9755 80.2165L70.9584 80.2253L70.942 80.2353C69.5155 81.108 67.6511 82.6358 66.814 83.9767C65.7751 85.6407 63.9772 86.0801 61.9157 86.5569L61.8754 86.5662L61.8372 86.582C55.9743 89.0087 50.7408 91.8247 45.1275 95.2589C43.5936 96.1973 42.7288 97.5826 42.5592 99.3727ZM32.7939 35.0573C49.7451 7.90565 85.8321 -0.440792 112.984 16.5104C140.135 33.4617 148.482 69.5487 131.531 96.7003C114.579 123.852 78.4923 132.198 51.3407 115.247C24.1891 98.2959 15.8426 62.2089 32.7939 35.0573Z" stroke="black" stroke-opacity="0.1"/>
</g>
<g filter="url(#filter1_d_42_617)">
<path d="M20.1102 67.7153C21.1323 67.6529 21.9155 67.8776 22.4596 68.3894C23.0338 68.8674 23.3521 69.6174 23.4145 70.6395C23.4652 71.4699 23.385 73.0457 23.1741 75.3669C22.9736 77.3348 22.8311 79.2029 22.7467 80.9713C22.6603 82.7078 22.6825 84.6461 22.8131 86.7861C22.8872 87.9998 22.6853 88.8938 22.2073 89.468C21.7594 90.0083 20.9765 90.3125 19.8586 90.3808C18.8046 90.4451 18.0214 90.2204 17.5092 89.7066C16.9969 89.1929 16.7076 88.393 16.6414 87.3071C16.5634 86.0294 16.6583 83.9077 16.9261 80.9419C17.1534 78.3632 17.2456 76.7226 17.2027 76.0199C17.1716 75.5088 16.9803 75.264 16.6289 75.2855C16.2137 75.3108 15.656 75.8899 14.9557 77.0226C14.2534 78.1235 13.5726 79.5757 12.9133 81.3792C12.2539 83.1827 11.7442 85.0733 11.384 87.0509C11.1243 88.5735 10.7714 89.621 10.3255 90.1932C9.90948 90.7315 9.20641 91.0309 8.21626 91.0914C7.2261 91.1518 6.47002 90.8453 5.94802 90.1718C5.45602 89.4645 5.08435 88.3651 4.83301 86.8737C4.58168 85.3822 4.36731 83.1832 4.18991 80.2766C3.88968 75.3577 4.07185 70.2011 4.73644 64.8065C5.43296 59.4101 6.64526 54.8478 8.37334 51.1195C10.1314 47.3575 12.3839 45.3926 15.1308 45.2249C16.6 45.1352 17.8208 45.7019 18.7931 46.9249C19.7955 48.1141 20.358 49.7148 20.4808 51.727C20.6777 54.953 19.9402 58.3643 18.2682 61.9609C16.5943 65.5255 13.7746 69.7531 9.80918 74.6438C9.81473 76.3105 9.87112 78.0223 9.97835 79.779C10.8667 76.9997 11.898 74.7247 13.0723 72.9538C14.2766 71.1491 15.4791 69.8414 16.68 69.0308C17.9128 68.2181 19.0562 67.7797 20.1102 67.7153ZM14.4142 50.0295C13.8392 50.0646 13.2511 50.934 12.6498 52.6378C12.0465 54.3097 11.4953 56.5715 10.9961 59.4232C10.5269 62.241 10.1851 65.3075 9.97066 68.6227C11.8087 66.1702 13.2826 63.5315 14.3926 60.7066C15.5345 57.8798 16.0372 55.3485 15.9007 53.1127C15.8384 52.0906 15.6788 51.3148 15.4221 50.7855C15.1654 50.2562 14.8294 50.0042 14.4142 50.0295ZM47.2307 76.1668C47.5767 76.1456 47.8535 76.3024 48.0609 76.6371C48.2684 76.9717 48.3883 77.4052 48.4208 77.9375C48.4988 79.2152 48.1592 79.9973 47.4019 80.284C45.839 80.9404 44.1017 81.3671 42.1902 81.5639C41.8209 83.8306 40.9324 85.6882 39.5247 87.1366C38.1154 88.5584 36.4658 89.327 34.576 89.4424C32.979 89.5399 31.5846 89.2376 30.393 88.5355C29.228 87.8319 28.3137 86.8591 27.6501 85.6172C26.9865 84.3753 26.6093 83.0091 26.5183 81.5186C26.3948 79.4957 26.6711 77.6755 27.3472 76.0579C28.0216 74.4138 29.0107 73.1111 30.3146 72.1499C31.6168 71.162 33.0931 70.6178 34.7433 70.517C36.7662 70.3936 38.4329 70.9998 39.7434 72.3358C41.0789 73.6435 41.9157 75.3157 42.2537 77.3522C43.4998 77.196 44.9741 76.8388 46.6766 76.2807C46.8863 76.2145 47.071 76.1765 47.2307 76.1668ZM34.6371 85.1908C35.4888 85.1388 36.1997 84.7481 36.7697 84.0187C37.3662 83.2876 37.7312 82.2635 37.8645 80.9463C37.0053 80.4377 36.3218 79.7447 35.814 78.8673C35.3329 77.9883 35.0615 77.0431 34.9998 76.0317C34.9738 75.6058 34.9877 75.1775 35.0416 74.7467L34.8419 74.7589C33.7773 74.8239 32.9173 75.3974 32.262 76.4793C31.6316 77.533 31.3734 78.9914 31.4871 80.8546C31.5764 82.3186 31.9241 83.4194 32.5302 84.1572C33.1629 84.8934 33.8652 85.2379 34.6371 85.1908ZM60.2185 78.7403C60.5645 78.7192 60.8405 78.8626 61.0463 79.1707C61.2787 79.4771 61.412 79.9097 61.4461 80.4687C61.5111 81.5334 61.3086 82.374 60.8386 82.9904C59.7802 84.471 58.5998 85.7052 57.2976 86.693C56.022 87.6792 54.5324 88.2243 52.8289 88.3283C50.4866 88.4713 48.6782 87.513 47.4037 85.4535C46.1558 83.3923 45.4287 80.6716 45.2224 77.2912C45.0242 74.0439 45.2109 70.319 45.7826 66.1163C46.3809 61.9121 47.4009 58.2698 48.8426 55.1896C50.3109 52.1077 52.1763 50.4978 54.4387 50.3597C55.7164 50.2817 56.7511 50.8197 57.5428 51.9736C58.3596 53.0992 58.8354 54.7667 58.9702 56.9759C59.1636 60.1433 58.5094 63.8701 57.0077 68.1562C55.5061 72.4424 53.3765 76.7267 50.6189 81.0093C50.8718 82.0893 51.2259 82.8558 51.681 83.3089C52.1345 83.7354 52.7072 83.9275 53.3993 83.8853C54.4906 83.8187 55.4301 83.4541 56.2179 82.7915C57.004 82.1024 57.9896 80.9602 59.1746 79.365C59.4713 78.9729 59.8193 78.7647 60.2185 78.7403ZM53.8016 54.3659C53.1894 54.4033 52.5648 55.5502 51.9278 57.8065C51.2907 60.0628 50.7793 62.8458 50.3936 66.1555C50.0078 69.4651 49.8801 72.6254 50.0105 75.6364C51.7102 72.4069 53.024 69.2009 53.9518 66.0184C54.878 62.8094 55.2623 59.9139 55.1048 57.3321C54.9813 55.3092 54.5469 54.3205 53.8016 54.3659ZM62.866 66.1957C61.7481 66.2639 60.8943 66.0622 60.3044 65.5906C59.713 65.0924 59.3888 64.3775 59.332 63.4459C59.2751 62.5143 59.5873 61.7205 60.2686 61.0644C60.9749 60.3801 61.8737 60.0046 62.965 59.938C63.9498 59.8779 64.763 60.0687 65.4044 60.5105C66.0458 60.9522 66.3934 61.6123 66.447 62.4906C66.512 63.5553 66.2179 64.4282 65.5649 65.1092C64.9102 65.7637 64.0106 66.1258 62.866 66.1957ZM60.3418 87.8697C59.4901 87.9217 58.8939 87.7845 58.5534 87.4579C58.2129 87.1314 58.0199 86.5955 57.9744 85.8502C57.9614 85.6373 57.9653 85.263 57.986 84.7274C58.1146 79.8305 58.5494 75.3557 59.2906 71.303C59.4531 70.4649 59.7642 69.8715 60.2238 69.5228C60.7084 69.1459 61.4964 68.9242 62.5877 68.8576C63.7322 68.7877 64.3329 69.2186 64.3898 70.1502C64.3979 70.2833 64.3867 70.5378 64.3563 70.9137C63.5061 76.6828 63.0791 81.5045 63.0751 85.3786C63.0739 86.2336 62.8576 86.8479 62.4262 87.2215C61.9948 87.5952 61.3 87.8112 60.3418 87.8697ZM124.394 74.8232C124.74 74.8021 125.016 74.9456 125.222 75.2536C125.455 75.56 125.588 75.9927 125.622 76.5516C125.687 77.6163 125.484 78.4569 125.014 79.0733C123.956 80.5539 122.776 81.7881 121.473 82.7759C120.171 83.7638 118.642 84.3113 116.885 84.4185C111.455 84.75 108.507 81.0961 108.041 73.457C107.969 72.2858 107.937 71.0989 107.944 69.8963L106.386 69.9913C105.588 70.0401 105.033 69.927 104.723 69.6521C104.439 69.3755 104.277 68.9179 104.238 68.279C104.147 66.7885 104.701 66.0066 105.898 65.9335L108.174 65.7946C108.448 62.8391 108.977 60.1219 109.76 57.6428C110.544 55.1638 111.544 53.1659 112.761 51.6489C114.004 50.1304 115.384 49.3248 116.901 49.2322C118.019 49.1639 118.928 49.6028 119.627 50.5486C120.325 51.4944 120.72 52.7126 120.811 54.2032C121.063 58.3289 119.552 62.0278 116.279 65.2999L120.751 65.027C121.177 65.001 121.488 65.0755 121.686 65.2504C121.884 65.4254 121.998 65.7657 122.029 66.2714C122.141 68.108 120.693 69.1181 117.685 69.3017L112.815 69.599C112.843 70.9331 112.879 71.9728 112.925 72.7181C113.094 75.4863 113.532 77.4098 114.239 78.4887C114.972 79.566 116.045 80.0616 117.455 79.9755C118.6 79.9057 119.59 79.4979 120.426 78.7523C121.262 78.0066 122.237 76.9052 123.35 75.448C123.647 75.0558 123.995 74.8476 124.394 74.8232ZM116.057 53.1308C115.658 53.1552 115.236 53.6886 114.792 54.7309C114.373 55.745 113.992 57.1575 113.648 58.9684C113.33 60.7512 113.09 62.7295 112.929 64.9033C114.416 63.45 115.495 61.8613 116.164 60.1373C116.859 58.3851 117.164 56.8169 117.079 55.4328C116.984 53.8624 116.643 53.0951 116.057 53.1308ZM127.408 83.7762C125.891 83.8688 124.617 83.3455 123.586 82.2062C122.581 81.0653 122.019 79.5233 121.901 77.5803C121.771 75.4509 122.141 73.4112 123.01 71.4613C123.878 69.4848 125.089 67.8747 126.643 66.631C128.221 65.3592 129.929 64.6672 131.766 64.5551C132.351 64.5193 132.744 64.6155 132.945 64.8437C133.171 65.0437 133.369 65.4324 133.537 66.0098C134.037 65.8725 134.592 65.7851 135.205 65.7478C135.843 65.7088 136.346 65.8384 136.711 66.1367C137.077 66.435 137.277 66.8769 137.313 67.4625C137.35 68.0747 137.282 69.1475 137.109 70.6809C136.915 72.3224 136.784 73.8934 136.715 75.3937C136.645 76.8674 136.666 78.5225 136.778 80.3591C136.839 81.3705 136.671 82.1155 136.273 82.594C135.9 83.0442 135.247 83.2978 134.316 83.3546C133.411 83.4099 132.719 83.2384 132.24 82.8401C131.787 82.4136 131.53 81.7079 131.47 80.7231L131.471 80.0819C130.786 82.4213 129.431 83.6527 127.408 83.7762ZM128.719 79.6487C129.465 79.6032 130.112 79.0427 130.661 77.9673C131.209 76.8919 131.642 75.0087 131.959 72.3177L132.471 68.2389C131.382 68.3321 130.396 68.8198 129.515 69.7017C128.632 70.5571 127.952 71.6673 127.474 73.0323C126.996 74.3972 126.803 75.825 126.894 77.3156C126.943 78.1141 127.126 78.7173 127.445 79.1253C127.789 79.5051 128.214 79.6796 128.719 79.6487ZM156.88 59.3674C157.615 59.3225 158.132 59.3871 158.431 59.5612C158.73 59.7353 158.894 60.046 158.921 60.4931C158.968 61.2597 158.719 64.016 158.175 68.7619C157.715 73.3104 157.447 76.0037 157.37 76.842C156.689 85.1228 155.457 91.7222 153.673 96.64C151.89 101.558 149.273 104.122 145.823 104.333C144.194 104.432 142.838 104.002 141.753 103.042C140.671 102.114 140.08 100.836 139.98 99.207C139.889 97.7058 140.13 96.1522 140.706 94.5461C141.313 92.9381 142.48 91.0555 144.208 88.8983C145.97 86.771 148.479 84.2935 151.737 81.4657L151.814 80.355C151.965 79.1596 152.117 77.4511 152.27 75.2297C151.772 77.5684 150.985 79.3797 149.909 80.6636C148.831 81.9156 147.654 82.5806 146.376 82.6586C144.939 82.7463 143.717 82.1637 142.711 80.9106C141.734 79.6237 141.186 77.9901 141.065 76.0098C140.919 73.6143 140.945 71.4166 141.143 69.4168C141.34 67.385 141.737 65.2288 142.336 62.9481C142.597 61.9704 143.002 61.2564 143.551 60.8061C144.101 60.3558 144.999 60.0926 146.244 60.0165C146.947 59.9737 147.433 60.0562 147.702 60.2642C148.003 60.4702 148.167 60.7968 148.195 61.244C148.21 61.4995 148.087 62.3726 147.826 63.8634C147.578 65.0647 147.388 66.1503 147.255 67.1202C147.079 68.4453 146.933 69.7206 146.815 70.9461C146.696 72.1396 146.659 73.1196 146.706 73.8862C146.78 75.0999 147.153 75.6863 147.823 75.6454C148.302 75.6161 148.864 75.101 149.508 74.0999C150.184 73.0968 150.862 71.5967 151.542 69.5996C152.253 67.6005 152.906 65.1563 153.499 62.2668C153.696 61.2929 154.037 60.5828 154.523 60.1364C155.041 59.688 155.826 59.4317 156.88 59.3674ZM146.067 99.653C146.865 99.6043 147.703 98.6234 148.58 96.7104C149.457 94.7974 150.259 91.6547 150.986 87.2823C148.653 89.5086 146.98 91.5022 145.965 93.2633C144.985 95.0544 144.533 96.5887 144.611 97.8664C144.644 98.4093 144.767 98.8507 144.981 99.1903C145.226 99.528 145.588 99.6822 146.067 99.653Z" fill="white"/>
<path d="M84.2892 86.5684C80.3066 86.8115 77.0719 86.2575 74.5849 84.9065C72.0962 83.5256 70.7568 81.278 70.5667 78.1638C70.4662 76.5168 70.6739 75.2418 71.1898 74.3387C71.7057 73.4356 72.5177 72.9502 73.6256 72.8826C74.4341 72.8333 75.1057 73.0027 75.6403 73.3908C76.175 73.779 76.4624 74.3024 76.5026 74.9612C76.5391 75.5601 76.5262 76.0868 76.4638 76.5415C76.4711 76.6613 76.454 76.8727 76.4123 77.1758C76.4007 77.4771 76.4049 77.7924 76.425 78.1218C76.5072 79.4693 77.2422 80.4313 78.6299 81.0078C80.0476 81.5825 81.9841 81.7949 84.4395 81.6451C86.9848 81.4897 88.9487 80.919 90.3312 79.9329C91.7118 78.9169 92.3519 77.5855 92.2514 75.9385C92.1892 74.9204 91.8069 74.0722 91.1042 73.3937C90.3998 72.6853 89.5388 72.1217 88.5214 71.7029C87.5022 71.2542 86.0723 70.7253 84.2318 70.1163C81.8712 69.3587 79.9327 68.6204 78.416 67.9015C76.9294 67.1807 75.62 66.1636 74.4879 64.8502C73.3838 63.5049 72.7688 61.7992 72.6427 59.7331C72.5111 57.5771 72.963 55.6259 73.9986 53.8796C75.0641 52.1314 76.6465 50.7274 78.7458 49.6675C80.8751 48.6058 83.407 47.9854 86.3415 47.8063C88.5274 47.6729 90.5538 47.8798 92.4206 48.4271C94.2856 48.9445 95.7973 49.829 96.9557 51.0808C98.1441 52.3307 98.7967 53.9139 98.9137 55.8303C99.0289 57.7168 98.8312 59.1565 98.3207 60.1494C97.8103 61.1424 97.0011 61.6727 95.8932 61.7403C95.1146 61.7878 94.4412 61.5885 93.873 61.1423C93.3347 60.6942 93.0454 60.1408 93.0052 59.482C92.9705 58.9131 92.9834 58.3863 93.044 57.9017C93.079 56.9979 93.0892 56.4263 93.0746 56.1867C92.9978 54.929 92.3255 54.0083 91.0575 53.4245C89.7896 52.8406 88.2424 52.6044 86.4158 52.7159C83.8405 52.8731 81.8935 53.4728 80.5745 54.5151C79.2837 55.5257 78.6904 56.8843 78.7945 58.5912C78.864 59.729 79.2677 60.6812 80.0058 61.4477C80.7738 62.2123 81.6983 62.8321 82.7792 63.3071C83.8602 63.7822 85.3668 64.3364 87.2989 64.9699C89.6314 65.7593 91.5091 66.4862 92.9323 67.1507C94.3554 67.8153 95.5854 68.7621 96.6222 69.9912C97.6889 71.2185 98.2799 72.7754 98.395 74.6619C98.6107 78.1953 97.4295 81.0025 94.8515 83.0834C92.3016 85.1326 88.7808 86.2942 84.2892 86.5684Z" fill="#1E6F98"/>
</g>
<defs>
<filter id="filter0_d_42_617" x="21.5137" y="7.22998" width="121.297" height="121.298" filterUnits="userSpaceOnUse" color-interpolation-filters="sRGB">
<feFlood flood-opacity="0" result="BackgroundImageFix"/>
<feColorMatrix in="SourceAlpha" type="matrix" values="0 0 0 0 0 0 0 0 0 0 0 0 0 0 0 0 0 0 127 0" result="hardAlpha"/>
<feOffset dy="2"/>
<feGaussianBlur stdDeviation="1"/>
<feComposite in2="hardAlpha" operator="out"/>
<feColorMatrix type="matrix" values="0 0 0 0 0 0 0 0 0 0 0 0 0 0 0 0 0 0 0.25 0"/>
<feBlend mode="normal" in2="BackgroundImageFix" result="effect1_dropShadow_42_617"/>
<feBlend mode="normal" in="SourceGraphic" in2="effect1_dropShadow_42_617" result="shape"/>
</filter>
<filter id="filter1_d_42_617" x="2.09863" y="36.5376" width="159.439" height="78.3184" filterUnits="userSpaceOnUse" color-interpolation-filters="sRGB">
<feFlood flood-opacity="0" result="BackgroundImageFix"/>
<feColorMatrix in="SourceAlpha" type="matrix" values="0 0 0 0 0 0 0 0 0 0 0 0 0 0 0 0 0 0 127 0" result="hardAlpha"/>
<feOffset dy="2"/>
<feComposite in2="hardAlpha" operator="out"/>
<feColorMatrix type="matrix" values="0 0 0 0 0.126389 0 0 0 0 0.142037 0 0 0 0 0.173333 0 0 0 0.25 0"/>
<feBlend mode="normal" in2="BackgroundImageFix" result="effect1_dropShadow_42_617"/>
<feBlend mode="normal" in="SourceGraphic" in2="effect1_dropShadow_42_617" result="shape"/>
</filter>
</defs>
</svg>
