<svg width="211" height="211" viewBox="0 0 211 211" fill="none" xmlns="http://www.w3.org/2000/svg">
<ellipse cx="105.435" cy="105.146" rx="55" ry="55.5" fill="#80BABC"/>
<g filter="url(#filter0_d_366_547)">
<path d="M136.249 57.0863C108.863 39.9888 72.4672 48.4066 55.3697 75.7925C38.2723 103.178 46.6901 139.574 74.0759 156.671C101.462 173.769 137.857 165.351 154.955 137.965C172.052 110.579 163.634 74.1838 136.249 57.0863ZM148.019 110.28C150.509 111.834 151.21 114.867 153.7 116.422C150.278 117.745 142.187 112.694 141.64 108.028C143.896 108.571 145.529 108.726 148.019 110.28ZM61.5938 79.6783C63.1481 77.1887 64.7024 74.699 67.2677 71.9756C67.8901 72.3642 68.124 73.3751 68.7464 73.7637C68.7464 73.7637 68.9802 74.7747 68.5916 75.3971C67.4259 77.2643 68.5159 79.6749 69.7608 80.452C74.3514 84.1831 73.4986 89.7057 77.0783 93.6705C77.9345 95.0701 76.535 95.9263 75.1354 96.7825C68.2923 99.4303 69.0729 105.108 70.242 110.163C71.7997 114.595 70.2454 117.085 68.5363 121.208C65.8163 125.565 63.3301 130.932 62.4772 136.455C51.58 119.272 50.325 97.7281 61.5938 79.6783ZM77.9617 150.447C73.6049 147.727 69.0142 143.996 66.0569 140.42C66.2117 138.786 66.9888 137.542 68.3884 136.685C73.9867 133.26 79.1963 130.458 85.0284 128.044C87.0504 127.576 89.0724 127.109 90.2381 125.241C91.0152 123.997 92.8034 122.518 94.203 121.662C98.0131 119.715 98.5564 117.46 96.4554 115.283C92.2533 110.93 92.4837 105.018 89.915 100.82C87.3463 96.621 84.389 93.0447 80.1112 92.969C78.4778 92.8143 76.222 92.271 77.3878 90.4037C78.9421 87.9141 76.9958 84.104 79.1725 82.003C78.5501 81.6144 77.9277 81.2258 76.9167 81.4596C75.9058 81.6934 74.8948 81.9273 74.0385 80.5277C73.5709 78.5057 74.9704 77.6495 75.7476 76.4047C77.1472 75.5485 78.1581 75.3146 79.7915 75.4694C82.6697 76.4013 85.1594 77.9556 84.4613 81.8448C89.8257 77.4089 95.503 76.6283 100.792 76.4702C100.792 76.4702 108.491 75.222 109.114 75.6105C109.736 75.9991 109.581 77.6325 110.437 79.0321C111.682 79.8092 112.305 80.1978 113.082 78.953C115.647 76.2295 116.111 71.3294 114.01 69.1527C114.399 68.5302 115.021 68.9188 115.021 68.9188C117.277 69.4622 120.544 69.7717 121.087 67.5159C122.641 65.0262 120.929 62.2271 118.439 60.6728C117.195 59.8956 115.95 59.1185 114.316 58.9637C111.05 58.6542 107.16 57.9561 103.426 55.6247C113.381 54.9198 123.649 57.8703 132.363 63.3104L137.342 66.419C133.219 64.7099 128.707 63.6233 125.441 63.3138C128.786 66.2676 128.243 68.5234 125.055 70.8583C123.656 71.7146 123.501 73.3479 124.357 74.7475C125.214 76.1471 126.458 76.9242 127.858 76.068C130.269 74.9779 133.147 75.9098 135.403 76.4532C138.281 77.3851 140.925 77.306 144.347 75.9821C144.735 75.3597 145.358 75.7483 146.369 75.5145C149.326 79.0908 151.506 83.9118 153.686 88.7329C153.064 88.3444 152.675 88.9668 152.053 88.5782C150.031 89.0459 147.775 88.5025 148.088 92.1579C147.933 93.7913 146.922 94.0251 145.911 94.2589C144.278 94.1042 144.044 93.0932 143.81 92.0822C143.576 91.0712 144.353 89.8264 142.486 88.6607C141.087 89.5169 138.831 88.9736 137.665 90.8408C140.777 92.7837 138.6 94.8847 138.057 97.1405C133.934 95.4315 131.524 96.5215 131.448 100.799C131.293 102.433 129.66 102.278 128.649 102.512C123.828 104.692 119.784 105.627 117.064 109.984C114.344 114.341 114.736 120.641 120.103 123.127C126.094 126.002 126.094 126.002 124.852 132.147C124.464 132.769 124.697 133.78 124.309 134.402C124.154 136.036 123.999 137.669 122.6 138.525C117.624 142.339 117.782 147.628 117.318 152.528C117.163 154.161 117.397 155.172 117.631 156.183C104.099 159.845 90.4098 158.219 77.9617 150.447Z" fill="#48924A"/>
<path d="M153.88 116.888L154.813 116.527L153.965 115.997C152.82 115.283 152.076 114.225 151.27 113.065L151.246 113.032C150.464 111.907 149.616 110.687 148.284 109.856C146.144 108.52 144.585 108.175 142.848 107.79C142.494 107.712 142.133 107.632 141.757 107.541L141.06 107.374L141.144 108.086C141.295 109.378 141.961 110.655 142.884 111.807C143.81 112.962 145.02 114.023 146.314 114.887C147.608 115.75 149.004 116.428 150.31 116.805C151.602 117.178 152.876 117.276 153.88 116.888ZM67.5325 71.5514L67.1848 71.3344L66.9038 71.6328C64.3045 74.3922 62.7284 76.9169 61.1755 79.4041L61.1697 79.4135C49.7893 97.642 51.065 119.393 62.055 136.723L62.7681 137.847L62.9714 136.531C63.8104 131.098 66.2616 125.795 68.9605 121.473L68.9824 121.437L68.9982 121.399C69.199 120.915 69.4004 120.447 69.5962 119.993C70.2163 118.554 70.7814 117.243 71.1003 115.918C71.5287 114.14 71.5246 112.318 70.723 110.023C70.1405 107.5 69.6867 104.928 70.1729 102.675C70.6487 100.471 72.0386 98.5169 75.3158 97.2489L75.3579 97.2326L75.3963 97.2091L75.4422 97.181C76.107 96.7744 76.8646 96.3111 77.3352 95.7524C77.5856 95.4551 77.7826 95.1005 77.8296 94.6827C77.8772 94.2594 77.764 93.8332 77.5048 93.4096L77.4805 93.3699L77.4494 93.3354C75.9099 91.6303 75.2295 89.6274 74.508 87.5036C74.4299 87.2739 74.3514 87.0428 74.2713 86.8105C73.4586 84.4545 72.4873 82.0237 70.0761 80.064L70.052 80.0444L70.0256 80.0279C69.5262 79.7162 69.0058 79.031 68.7508 78.1885C68.4995 77.358 68.5268 76.4451 69.0158 75.6619C69.2896 75.2232 69.3253 74.6925 69.3145 74.3321C69.3088 74.1421 69.2893 73.9757 69.2712 73.8564C69.2621 73.7965 69.2532 73.7476 69.2464 73.7126C69.243 73.695 69.24 73.6809 69.2378 73.6706L69.2351 73.6579L69.2341 73.6537L69.2338 73.6522L69.2336 73.6516L69.2336 73.6513C69.2335 73.6512 69.2335 73.6511 68.7464 73.7637L69.2335 73.6511L69.1868 73.4493L69.0112 73.3396C68.8196 73.22 68.6646 72.9863 68.4336 72.6087C68.4255 72.5956 68.4174 72.5822 68.4091 72.5686C68.2139 72.2488 67.9458 71.8094 67.5325 71.5514ZM65.5592 140.373L65.5396 140.579L65.6716 140.738C68.6726 144.368 73.3091 148.132 77.6969 150.871C90.2689 158.72 104.103 160.362 117.761 156.666L118.226 156.54L118.118 156.071C117.887 155.074 117.669 154.126 117.816 152.575C117.868 152.024 117.912 151.473 117.957 150.924C118.315 146.503 118.664 142.184 122.884 138.938C123.697 138.431 124.14 137.701 124.397 136.909C124.639 136.162 124.723 135.33 124.797 134.556C124.999 134.165 125.042 133.709 125.074 133.369C125.075 133.353 125.077 133.337 125.078 133.322C125.12 132.881 125.157 132.603 125.276 132.411L125.324 132.335L125.342 132.246L125.349 132.215C125.654 130.705 125.891 129.53 125.974 128.593C126.059 127.644 125.994 126.865 125.632 126.177C125.273 125.495 124.658 124.975 123.807 124.458C122.963 123.944 121.821 123.397 120.346 122.689L120.32 122.676L120.314 122.673C117.789 121.504 116.446 119.452 116.043 117.17C115.637 114.872 116.187 112.332 117.488 110.249C118.79 108.162 120.407 106.893 122.305 105.872C123.26 105.358 124.284 104.909 125.381 104.447C125.649 104.334 125.922 104.221 126.199 104.106C127.035 103.758 127.909 103.394 128.808 102.989C128.967 102.954 129.14 102.93 129.341 102.902C129.412 102.892 129.486 102.881 129.564 102.87C129.866 102.825 130.21 102.766 130.535 102.652C130.864 102.537 131.199 102.356 131.464 102.052C131.734 101.742 131.899 101.343 131.946 100.846L131.947 100.827L131.948 100.808C131.984 98.7369 132.583 97.6333 133.468 97.1673C134.389 96.6822 135.838 96.7618 137.866 97.6024L138.406 97.8265L138.543 97.2576C138.667 96.7446 138.885 96.2328 139.119 95.6829L139.123 95.6736C139.351 95.138 139.598 94.558 139.721 93.9772C139.847 93.3836 139.853 92.7541 139.572 92.1242C139.348 91.6205 138.959 91.1567 138.38 90.7235C138.832 90.2359 139.419 90.0163 140.101 89.8588C140.312 89.81 140.526 89.7683 140.748 89.7253L140.758 89.7233C140.975 89.6815 141.199 89.638 141.419 89.5871C141.764 89.5074 142.12 89.4048 142.457 89.2438C142.736 89.4475 142.914 89.641 143.029 89.8181C143.172 90.0376 143.237 90.2568 143.264 90.4877C143.29 90.7088 143.281 90.9276 143.271 91.185C143.27 91.2114 143.269 91.2382 143.268 91.2655C143.257 91.5393 143.248 91.869 143.323 92.1949L143.332 92.2359C143.442 92.7125 143.579 93.3049 143.932 93.7871C144.324 94.3224 144.934 94.6686 145.864 94.7567L145.945 94.7643L146.024 94.7461L146.065 94.7366C146.541 94.6266 147.134 94.4898 147.616 94.1366C148.151 93.7445 148.498 93.1349 148.586 92.205L148.59 92.1602L148.586 92.1152C148.511 91.2435 148.596 90.6833 148.751 90.3171C148.898 89.9699 149.121 89.7649 149.414 89.622C149.727 89.469 150.122 89.3869 150.609 89.3155C150.722 89.2989 150.84 89.2829 150.963 89.2663C151.287 89.2227 151.638 89.1753 151.983 89.105C152.389 89.2804 152.74 89.199 152.966 89.1465L152.982 89.1427C153.228 89.0859 153.297 89.0792 153.421 89.1571L154.822 90.0316L154.142 88.5269L154.124 88.4867C151.957 83.6952 149.754 78.8238 146.754 75.1958L146.557 74.9577L146.256 75.0273C145.931 75.1024 145.678 75.1014 145.409 75.1004C145.313 75.1 145.214 75.0997 145.109 75.1028C144.926 75.1083 144.705 75.1273 144.489 75.2192C144.309 75.2954 144.156 75.4116 144.028 75.5686C140.769 76.805 138.275 76.8576 135.557 75.9775L135.538 75.9716L135.52 75.9671C135.285 75.9106 135.04 75.8488 134.787 75.7849C133.852 75.5493 132.804 75.2851 131.751 75.152C130.403 74.9816 128.975 75.0139 127.652 75.6124L127.624 75.6252L127.597 75.6415C127.029 75.9887 126.541 75.9886 126.106 75.7964C125.641 75.5909 125.183 75.1396 124.784 74.4866C124.406 73.8692 124.269 73.2291 124.355 72.6755C124.438 72.1326 124.74 71.6373 125.316 71.2848L125.334 71.274L125.351 71.2617C126.969 70.0768 128.058 68.8158 128.196 67.3653C128.303 66.2386 127.825 65.1249 126.827 63.9863C129.861 64.4318 133.647 65.4284 137.151 66.8809L137.607 65.9949L132.628 62.8862C123.837 57.3983 113.466 54.4126 103.391 55.1259L101.857 55.2345L103.161 56.0488C106.992 58.4403 110.971 59.149 114.269 59.4615C115.769 59.6036 116.919 60.3131 118.175 61.0969C119.356 61.8348 120.329 62.8543 120.824 63.9496C121.312 65.0287 121.337 66.1708 120.663 67.2511L120.62 67.3199L120.601 67.3988C120.402 68.2265 119.717 68.6441 118.638 68.7704C117.58 68.8944 116.296 68.707 115.201 68.4477C115.175 68.4349 115.145 68.4206 115.109 68.4059C115.014 68.3665 114.875 68.3203 114.709 68.3046C114.541 68.2886 114.335 68.3033 114.126 68.398C113.914 68.4941 113.73 68.658 113.586 68.8879L113.379 69.219L113.651 69.4999C114.562 70.4446 114.964 72.0447 114.798 73.8006C114.633 75.545 113.913 77.3413 112.718 78.6102L112.684 78.6462L112.658 78.6882C112.481 78.9704 112.341 79.1143 112.236 79.1856C112.146 79.2462 112.072 79.2616 111.982 79.253C111.872 79.2425 111.72 79.1935 111.495 79.078C111.297 78.976 111.075 78.8402 110.806 78.6725C110.467 78.0785 110.315 77.4352 110.175 76.8295L110.17 76.8079C110.101 76.5089 110.029 76.1972 109.931 75.9362C109.832 75.6736 109.675 75.3716 109.378 75.1864C109.243 75.1016 109.083 75.074 108.984 75.0606C108.865 75.0446 108.728 75.0376 108.583 75.0359C108.291 75.0326 107.922 75.0508 107.512 75.0824C106.689 75.1458 105.658 75.2668 104.654 75.3989C103.648 75.5312 102.663 75.6756 101.93 75.7869C101.563 75.8425 101.259 75.8899 101.046 75.9234C100.94 75.9401 100.856 75.9534 100.799 75.9625L100.744 75.9714C95.7248 76.1238 90.2796 76.8395 85.0784 80.7237C85.1083 79.2495 84.6433 78.1043 83.8386 77.213C82.8531 76.1215 81.4069 75.4668 79.9456 74.9937L79.8933 74.9768L79.8387 74.9716C78.9884 74.8911 78.2699 74.9087 77.5692 75.0708C76.8685 75.2328 76.2152 75.5325 75.4867 75.9782L75.386 76.0398L75.3235 76.1399C75.1484 76.4202 74.9355 76.6833 74.6989 76.9744L74.6902 76.9851C74.4627 77.265 74.213 77.5722 74.0021 77.91C73.5568 78.6233 73.2824 79.4773 73.5514 80.6404L73.5697 80.7194L73.612 80.7886C74.0995 81.5854 74.6782 81.9811 75.3313 82.0983C75.9196 82.2039 76.5119 82.0667 76.9883 81.9563L77.0294 81.9468C77.5966 81.8156 77.996 81.9197 78.4012 82.1293C77.5543 83.2905 77.5294 84.7522 77.5468 86.0642C77.5485 86.193 77.5507 86.3206 77.5529 86.447C77.5639 87.0883 77.5743 87.6998 77.5185 88.2891C77.4525 88.9863 77.2961 89.6065 76.9637 90.1389C76.6314 90.6711 76.4912 91.1925 76.6047 91.6832C76.7182 92.1739 77.0585 92.5176 77.435 92.7527C78.1655 93.2087 79.243 93.389 80.0641 93.4668L80.0832 93.4686L80.1024 93.469C84.0809 93.5393 86.9101 96.866 89.4885 101.081C90.4861 102.711 91.0437 104.602 91.6419 106.63C91.7882 107.126 91.9369 107.631 92.095 108.141C92.8894 110.706 93.9103 113.366 96.0956 115.63C97.0752 116.645 97.3412 117.568 97.0701 118.405C96.783 119.292 95.8439 120.262 93.9755 121.217L93.9584 121.225L93.942 121.235C92.5155 122.108 90.6511 123.636 89.814 124.977C88.7751 126.641 86.9772 127.08 84.9157 127.557L84.8754 127.566L84.8372 127.582C78.9743 130.009 73.7408 132.825 68.1275 136.259C66.5936 137.197 65.7288 138.583 65.5592 140.373ZM55.7939 76.0573C72.7451 48.9057 108.832 40.5592 135.984 57.5104C163.135 74.4617 171.482 110.549 154.531 137.7C137.579 164.852 101.492 173.198 74.3407 156.247C47.1891 139.296 38.8426 103.209 55.7939 76.0573Z" stroke="black" stroke-opacity="0.1"/>
</g>
<defs>
<filter id="filter0_d_366_547" x="44.5137" y="48.23" width="121.297" height="121.298" filterUnits="userSpaceOnUse" color-interpolation-filters="sRGB">
<feFlood flood-opacity="0" result="BackgroundImageFix"/>
<feColorMatrix in="SourceAlpha" type="matrix" values="0 0 0 0 0 0 0 0 0 0 0 0 0 0 0 0 0 0 127 0" result="hardAlpha"/>
<feOffset dy="2"/>
<feGaussianBlur stdDeviation="1"/>
<feComposite in2="hardAlpha" operator="out"/>
<feColorMatrix type="matrix" values="0 0 0 0 0 0 0 0 0 0 0 0 0 0 0 0 0 0 0.25 0"/>
<feBlend mode="normal" in2="BackgroundImageFix" result="effect1_dropShadow_366_547"/>
<feBlend mode="normal" in="SourceGraphic" in2="effect1_dropShadow_366_547" result="shape"/>
</filter>
</defs>
</svg>
